# xmcd
#
# Track frame offsets: 
#        150
#        14459
#        27320
#        47719
#        67469
#        80825
#        104073
#        125323
#        146919
#        161316
#        175708
#
# Disc length: 2636 seconds
#
# Revision: 0
# Processed by: cddbd v1.5.2PL0 Copyright (c) Steve Scherf et al.
# Submitted via: ExactAudioCopyFreeDBPlugin 1.0
#
DISCID=9e0a4a0b
DTITLE=Patty Clayton - Dancin' in Denver
DYEAR=2011
DGENRE=Country
TTITLE0=Let's Dance
TTITLE1=Black Hay
TTITLE2=Arizona Moonlight
TTITLE3=Dancin' in Denver
TTITLE4=Your Saddle is Empty Old Pal
TTITLE5=Pa'u Riders
TTITLE6=Looking Glass
TTITLE7=Wanda Walker
TTITLE8=Cowboy Hula (Na Cowboy)
TTITLE9=Montana Cowboy
TTITLE10=My Heart Beats for the Boogie
EXTD=
EXTT0=
EXTT1=
EXTT2=
EXTT3=
EXTT4=
EXTT5=
EXTT6=
EXTT7=
EXTT8=
EXTT9=
EXTT10=
PLAYORDER=
